<svg xmlns="http://www.w3.org/2000/svg" width="298" height="213.45"><path d="M0 0c.049.142.16.012.256-.155.101-.175.169-.304.179-.509.023-.459-.231-1.021-.704-1.165-.202-.062-.439-.001-.63-.108-.179-.102-.217-.305-.377-.424-.211-.157-.457.019-.686-.045-.27-.077-.398-.27-.704-.094.312-.041.472.231.752.279.399.066.53.041.726.428a.636.636 0 0 0 .242.254c.176.107.384.124.567.211.23.109.329.232.369.481.037.23-.027.479-.012.712.004.06.011.104.022.135" style="fill:#581b00;fill-opacity:1;fill-rule:nonzero;stroke:none" transform="matrix(2.5121 0 0 -2.5121 156.058 40.235)"/><path d="M0 0c-.401-.205-.7-.57-.773-.988.014.323.101.709.159 1.053l.012.092c.354.44.49 1.18.495 1.371.016.687.214 1.852-1.048 2.488l-.584-.059c1.458-.389 1.307-1.41 1.361-2.355.021-.388-.188-1.05-.495-1.378-.029-.032-.414-.301-.442-.299.067-.005.195-.088.369-.034-.087-.624-.067-1.161.349-1.499-.126.103-.173.28-.178.494.189.509.656.787 1.18.874C.343-.214.051-.073 0 0" style="fill:#581b00;fill-opacity:1;fill-rule:nonzero;stroke:none" transform="matrix(2.5121 0 0 -2.5121 168.567 17.394)"/><path d="M0 0c-.06.094-.117.19-.17.288-.748 1.402-.213 2.95.737 3.594l-.466.571C.109 4.442-.003 4.07 0 4.001c.008-.184.025-.339-.098-.494-.239-.304-.696-.367-.828-.774a3.575 3.575 0 0 1-.165-.973A3.367 3.367 0 0 1-.953.69c.034-.117.395-1.086.518-1.051.08.022.262.097.435.361" style="fill:#581b00;fill-opacity:1;fill-rule:nonzero;stroke:none" transform="matrix(2.5121 0 0 -2.5121 156.143 51.985)"/><path d="m0 0 .324-.306a86.1 86.1 0 0 1 1.659-1.54c.326-.295.94-.644.853-1.165-.045-.267-.262-.452-.421-.655a8.439 8.439 0 0 1-.478-.678C1.335-5.288.885-6.326.513-7.379a21.972 21.972 0 0 1-.788-2.77c-.013-.065-.012-.154-.065-.202a9.68 9.68 0 0 1-.41-.444c-.185-.225-.376-.454-.529-.702l-.015-.025c-.23-.403.24-.654.25-1.117.006-.267.03-.533.055-.798.034-.367.075-.732.123-1.097a16.978 16.978 0 0 1 .122-.793l.022-.118c.004-.019.007-.094.026-.103.041-.018.052.122.057.147.013.063.027.125.042.187.038.162.079.323.119.484.104.408.207.815.299 1.225.037.167.073.334.104.503.207 1.089.464 2.36.653 2.738a41.807 41.807 0 0 0 2.418 4.243c.395.603.807 1.195 1.246 1.765.343.445 1.117 1.045.931 1.681-.034.117-.109.235-.163.343-.149.301-.31.595-.475.887A32.1 32.1 0 0 1 2.772 1.44c-.23.324-.527.643-.797.971-.004.005.413.24.427.22A62.593 62.593 0 0 0 4.329-.152c.347-.532.687-1.07 1.01-1.618.336-.574.648-1.197.212-1.805-.231-.322-.483-.632-.722-.949-.649-.861-1.29-1.726-1.917-2.603-.848-1.188-1.784-2.412-2.376-3.756-.053-.121-.293-2.037-.423-2.436-.067-.207-.141-.412-.213-.617-.113-.321-.227-.641-.335-.963a17.04 17.04 0 0 1-.196-.615c-.006-.024-.019-.103-.042-.115-.01-.005-.02-.001-.032.018-.014.022-.023.051-.034.075l-.078.169c-.038.085-.093.181-.105.274-.036.304-.259 1.702-.33 1.999-.111.455-.669 1.061-.572 1.529.071.339 1.234.918 1.358 1.233.129.329.134.715.19 1.063.109.68.148.905.313 1.574.336 1.35.797 2.743 1.634 3.873.235.318.53.593.797.883.318.344-.177.53-.444.736A54.225 54.225 0 0 0-.292-.301L0 0z" style="fill:#581b00;fill-opacity:1;fill-rule:nonzero;stroke:none" transform="matrix(2.5121 0 0 -2.5121 160.536 56.794)"/><path d="M0 0c-.21.858-.109 1.501-.14 1.476-.08-.063-.116.309-.161.204C-.433 1.368-.54.87-.45.181c.134-1.032.471-1.855.913-2.766C1.962-5.67.856-8.324-.476-8.868c.695-2.113 1.917-4.134 2.126-6.444.197-2.204.576-3.617 1.085-5.404-.401.802-1.004 1.741-1.378 2.621C.35-15.714-.308-13.379-.85-12.422c-.38.67-.868 1.645-1.367 2.211.1-.521-.033-.964-.163-1.128 1.173-1.259 1.659-3.029 2.429-4.568-.029-1.367 2.744-5.959 3.342-6.969.492-.832.807-2.48.807-2.48s2.193-.005 2.223-.004c-.044.145-.487.806-.672 1.015-.283.322-1.283 1.228-1.469 1.504a11.12 11.12 0 0 0-.989 1.812c-.608 1.41-.977 3.03-.921 4.572.082 2.245-.959 4.106-1.43 6.219-.068.308-.231.919-.231.919.725.939 2.358 3.234.328 6.294C.515-2.239.247-1.011 0 0" style="fill:#581b00;fill-opacity:1;fill-rule:nonzero;stroke:none" transform="matrix(2.5121 0 0 -2.5121 195.29 54.22)"/><path d="M0 0c.147.163.942.95.872 1.121C.8 1.294.13.987-.553.652c-.207.267-.43.544-.544.665-.014.016-.03.03-.045.045.582.348 1.099.683 1.083.778-.052.326-1.162.353-2.277.209-5.741 3.657-13.606.044-15.298-6.264-.052-.194.068-.953.041-1.157-.075-.787-.804-1.442-.8-1.445.046-.033.43-.076.43-.091.004-.347.011-.194.049-.553.034-.058.408-.552.408-.538 0 .219.005.436.018.652.392 6.723 7.179 11.808 13.098 8.937A6.4 6.4 0 0 0-2.08-.001c-.04.05.114-1.365.071-1.316.152-.549.063-.467.001-1.076-.023-.237-.35-.375-.597-1.246-.226-.793-.319-5.969-.252-6.256.102-.44-.145-.468-.374-.764-.185-.241-.387-.465-.7-.525-.447-.087-.249.422-1.522.57-.188.022-.56 2.07-.586 2.44-.176 2.402-2.287 4.906-2.381 5.272-.003.002-.101-.922-.08-.96.155-.272 1.615-2.739 1.8-3.161a8.776 8.776 0 0 0 .521-1.674c.07-.316.232-2.074.417-2.243.291-.264.611-.381.977-.408.253-.019.493-.592.92-.559.637.049.692.541.887.69.832.633.51 2.009.526 2.445.054 1.426.325 4.079.387 4.45.185 1.114.308.509.559.958.142.256-.149 1.898-.001 2.032C-1.361-.851-.348-.386 0 0" style="fill:#581b00;fill-opacity:1;fill-rule:nonzero;stroke:none" transform="matrix(2.5121 0 0 -2.5121 212.973 33.344)"/><path d="M0 0c.025.258.367.289.536.377.276.144.243.373.24.661-.008.699-.27 1.555.195 2.17.455.601 1.051 1.112 1.753 1.403.979.404 1.966.786 2.925 1.24.194.091.349.207.554.268.234.07.47.136.705.207.468.141.934.295 1.381.498.199.091.378.178.548.318.12.099.298.215.457.155.087.124.112.403-.049.488-.319.166-.505-.232-.676-.411-.242-.251-.602-.391-.922-.529-.34-.145-.642-.273-.976-.425-.378-.173-.787-.258-1.17-.415-1.17-.476-2.455-.805-3.551-1.448C1.478 4.28.891 3.905.617 3.416c-.3-.538-.2-1.017-.153-1.601.032-.399.06-.663-.176-.983C.06.523-.001.399 0 0" style="fill:#581b00;fill-opacity:1;fill-rule:nonzero;stroke:none" transform="matrix(2.5121 0 0 -2.5121 141.553 25.343)"/><path d="M0 0c-.016-.052-.06-.093-.099-.136C-.373-.435-.78-.237-1.114-.17c-.177.035-.412.046-.564-.059.228.157.215.234.495.279.206.033.504-.04.685.096.202.152.212.447.411.611.178.147.432.183.649.234.704.163.48.667.734 1.128.097.177.293.324.454.438-.207-.147-.212-.684-.255-.902-.058-.29-.18-.649-.453-.801C.522.565.226.752 0 0" style="fill:#581b00;fill-opacity:1;fill-rule:nonzero;stroke:none" transform="matrix(2.5121 0 0 -2.5121 150.44 44.924)"/><path d="M0 0c-.529-.37-1.045-.684-1.638-.927-1.17-.476-2.456-.805-3.552-1.448-1.058-.621-1.994-1.599-2.142-2.865-.058-.495.371-1.242.208-1.621-.207-.478-1.153-.476-1.454-.562-.904-.256-1.573-.819-1.438-1.482.134-.664.169-.851.076-1.27-.126-.572-.77-.563-1.175-.837-.608-.413-.599-.753-.667-1.434-.064-.638-.513-.663-.893-1.084-.38-.423-.246-.71-.366-1.213-.077-.325-.203-.507-.468-.617-.021-.008-.017-.033.006-.036.603-.077.605.674.694.974.157.529.242.75.807 1.016.249.117.641.141.761.425.256.599-.181 1.074.32 1.572.382.379 1.058.314 1.43.723.463.507.074 1.17.052 1.407-.045.472.053 1.112.577 1.447.217.139.748.184 1.179.191.216.003.441.014.637.115.106.055.174.138.233.207.323.382.114.783.069 1.317-.136 1.584.863 3.075 2.328 3.681.979.405 1.967.786 2.925 1.24.63.298 1.183.735 1.804 1.052.492.253 1.301.65 1.827.268C2.157 1.364.283.199 0 0" style="fill:#581b00;fill-opacity:1;fill-rule:nonzero;stroke:none" transform="matrix(2.5121 0 0 -2.5121 158.046 6.919)"/><path d="M0 0c.175-.002.293.053.443.14.482.279.697.782.786 1.28.242 1.353 1.943 2.668 3.432 3.294.823.346 2.313 1.802 2.731 2.752-1.723-.742-3.928-1.696-5.253-3.557l-.209-.137c.245.161.517.916.753 1.175.438.483.965.887 1.505 1.248.639.426 1.318.795 2.013 1.121.503.235 1.3.275 1.474.909.693-1.125-1.807-3.504-2.708-3.896-1.802-.784-3.074-1.366-3.571-3.083C1.24.708.947.122.43-.151c-.06-.032-.44-.132-.654-.04-.296.128-.865.364-.969.234.11.138.267.207.524.148C-.658.189-.248.004 0 0" style="fill:#581b00;fill-opacity:1;fill-rule:nonzero;stroke:none" transform="matrix(2.5121 0 0 -2.5121 141.463 35.603)"/><path d="M0 0c.004.093.013.19.042.291.126.431.437.656.873.7.43.044.8-.291 1.175-.245.203.024.398.156.541.296.291.287.466.697.537 1.094.242 1.352 1.861 2.834 3.394 3.345 1.796.6 2.773 2.065 2.731 2.752-1.724-.741-3.928-1.696-5.253-3.556l-.209-.138c.244.161.517.915.752 1.175.438.484.966.886 1.506 1.248a15.23 15.23 0 0 0 2.013 1.121c.503.235 1.3.276 1.474.909.693-1.125-.672-3.026-2.709-3.897C5.06 4.324 3.794 3.73 3.296 2.014 3.125 1.422 2.804.685 2.157.506 1.681.375 1.32.863.828.656.45.497.371.128.312-.247.197-.981-.49-.788-.76-1.286c-.027.384.356.417.565.628C.011-.45-.009-.236 0 0" style="fill:#581b00;fill-opacity:1;fill-rule:nonzero;stroke:none" transform="matrix(2.5121 0 0 -2.5121 137.699 30.313)"/><path d="M0 0a.758.758 0 0 1-.181.009c.007-.1.24-.163.317-.215C.303-.318.42-.483.586-.6a1.76 1.76 0 0 1 .545-.258 1.657 1.657 0 0 1 1.474.285c2.985 2.325 2.959 4.79 4.717 6.741-.278-.131-.574-.247-.574-.247C6.117 5.36 5.13 1.579 2.566-.198a1.945 1.945 0 0 0-1.213-.348 1.747 1.747 0 0 0-.524.112c-.167.066-.285.181-.438.268-.063.036-.13.075-.196.103A.866.866 0 0 1 0 0" style="fill:#581b00;fill-opacity:1;fill-rule:nonzero;stroke:none" transform="matrix(2.5121 0 0 -2.5121 139.72 36.517)"/><path d="M0 0c.236.744 1.001.334 1.56.347.832.022.928.641 1.156 1.264.254.691 1.696.328 2.365.3.938-.038 1.191-.133 1.96.474.859.678.397 2.224.914 3.042-.263-.416-.648-.485-.772-1.054-.088-.404-.18-1.362-.466-1.713-.598-.735-.891-.585-1.775-.559-.569.018-1.926.437-2.288-.035C2.228 1.514 2.36.775 1.559.65.997.563.24 1.197-.122.009-.145-.068-.022-.067 0 0" style="fill:#581b00;fill-opacity:1;fill-rule:nonzero;stroke:none" transform="matrix(2.5121 0 0 -2.5121 132.011 45.054)"/><path d="M0 0a1.475 1.475 0 0 0-.897.072c-.141.053-.277.119-.414.183-.131.062-.275.096-.403.156.03.061.198.007.253-.012.088-.029.178-.048.269-.068.274-.06.595-.199.878-.132C.532.396.25 1.442.955 1.728c.52.212 1.191-.03 1.692-.194C6.047.422 7.451 3.536 6.12 5.323c-.105.141-.291.826-.12 1.226l.516.858c-.472-1.13-.244-1.845-.105-2.081C7.962 2.68 5.185.028 2.669 1.311c-.509.259-1.288.497-1.766.041C.44.91.804.201 0 0" style="fill:#581b00;fill-opacity:1;fill-rule:nonzero;stroke:none" transform="matrix(2.5121 0 0 -2.5121 138.311 45.004)"/><path d="M0 0c.152-.406.666-.068.957-.119.175-.031.28-.205.44-.21.228-.006.417.248.649.271.391.039.623-.339.978-.403.445-.081.609.411.848.688.594.69 1.093.182 1.753.577.473.284.427 1.048.547 1.525.136.537.462.934 1.016 1.052.511.109 1.043.033 1.56.074.257.02.588.066.807.206.396.251.445.731.478 1.258.05-.198.149-.692-.131-1.162-.294-.497-.889-.715-1.434-.774-.808-.089-1.467.123-1.96-.694-.287-.474-.056-1.162-.403-1.598C5.719.205 5.104.475 4.606.215c-.325-.17-.426-.423-.619-.72-.237-.366-.594-.61-1.03-.342-.302.184-.525.357-.889.375-.275.014-.541-.211-.81-.137-.116.033-.211.124-.325.154-.214.057-.578.01-.803.106C-.075-.262.063-.17 0 0" style="fill:#581b00;fill-opacity:1;fill-rule:nonzero;stroke:none" transform="matrix(2.5121 0 0 -2.5121 141.804 53.913)"/><path d="m0 0-.111-.121c-.116.105-.039.279.035.378.431.572 1.158.265 1.731.206.493-.051.323.354.506.582.141.177.445.088.563-.082C2.878.74 2.59.242 2.77.217c.041-.196-.197-.231-.302-.102-.147.184.094.236.13.368.038.144-.005.39-.165.394-.216.005-.174-.259-.267-.373-.119-.149-.34-.21-.521-.218-.293-.013-.539.159-.827.169C.471.468.217.234 0 0" style="fill:#581b00;fill-opacity:1;fill-rule:nonzero;stroke:none" transform="matrix(2.5121 0 0 -2.5121 164.951 7.183)"/><path d="M0 0c.098.247.292.473.486.582.318.179.772.134 1.087-.037.128-.07.63-.492.53-.683-.298-.057-.313.322-.497.451C1.372.478.941.378.703.246a1.331 1.331 0 0 1-.406-.363C.275-.147.029-.596.056-.599c-.011.001-.036 0-.047 0C-.096-.422-.081-.204 0 0" style="fill:#581b00;fill-opacity:1;fill-rule:nonzero;stroke:none" transform="matrix(2.5121 0 0 -2.5121 164.481 5.48)"/><path d="M0 0c.417.102.607.356.835.695.124.185.311.315.497.43.115.071.272.13.407.063.105-.052.172-.202.29-.22.346-.054.555.419.924.259.344-.149.308-.584.422-.882.042-.109.125-.198.178-.299.1.427.096.857-.17 1.214-.255.344-.622.4-.979.198-.369-.208-.806.082-1.16-.118C1.001 1.204.796.864.623.655.382.365.153.268-.219.365c-.388.1-.714-.232-.782-.592-.054-.287-.047-.795-.373-.933.337-.163.468.21.557.462.14.396.39.594.817.698" style="fill:#581b00;fill-opacity:1;fill-rule:nonzero;stroke:none" transform="matrix(2.5121 0 0 -2.5121 155.728 6.48)"/><path d="M0 0c.609.008.647.682 1.327.801.723.127.297 1.21 1.829 1.19.137-.003.248-.06.376-.094a.47.47 0 0 0 .275-.158c.03-.039.075-.079.099-.121.036-.06.019-.071.015-.134-.383.204-.879.354-1.297.156a1.196 1.196 0 0 1-.648-.785C1.798.212 1.482.451 1.155.296.734.096.503-.301 0 0" style="fill:#581b00;fill-opacity:1;fill-rule:nonzero;stroke:none" transform="matrix(2.5121 0 0 -2.5121 131.185 41.438)"/><path d="m0 0-.489.009C-3.164.164-4.002 1.04-6.022.08a3.529 3.529 0 0 1-.163-.083C-8.16-1.058-7.473-2.831-8.767-3.929c-1.164-.989-3.308-1.538-4.296-2.325-.626-.498-.867-1.256-.939-1.585-.18-.818-.065-1.887.55-2.891.48-.782-.32-1.262-.137-2.044.168.59.574.916.686 1.451.092.447-.083.888-.336 1.276-.308.471-.473 1.48-.38 2.042.121.738.961 1.21 1.697 1.499 1.962.77 3.908 2.011 4.384 3.951C-6.807.424-3.904.343-1.908-.002-3.243-.058-4.453-.281-5.547-.99c-1.162-.754-1.568-2.482-2.01-2.969-2.325-2.559-5.249-2.737-5.09-7.507.009-.246-.349-.99-.473-1.342-.116-.332-.237-.661-.215-1.016.008-.142.064-.633.439-.804-.117.206-.257.484-.257.718 0 .311.108.496.211.783.136.381.292.753.404 1.143.182.627.278 1.276.334 1.925.244 2.841 2.154 3.562 4.656 5.118.629.392.882.936 1.058 1.465.097.291.178.592.207.893.035.354.11.727.382 1.013.061.066.499.4.575.452.728.509 1.655.656 2.547.825.727.136 1.34.085 2.008.058l.167-.038c-1.03-.064-2.136-.239-3.223-.689-.166-.068-.383-.149-.533-.24-.145-.088-.283-.168-.43-.255-.71-.414-.994-1.071-1.101-1.769-.131-.854-.321-1.666-1.174-2.065-5.644-2.64-4.163-4.76-4.948-6.519-.457-1.023-.827-1.859-.531-2.949.179-.663 1.455-2.305 4.335-2.676-1.367.659-4.577 1.305-4.063 4.036.176.933.951 2.442 1.059 3.606.035.382.29.746.557 1.121 1.028 1.331 3.014 1.692 4.136 2.88.704.647 1.09 1.465 1.246 2.33.069.386.183 1.451 1.1 2.005.481.289 1.086.487 1.652.615.494.113 1.044.159 1.609.229-.118-.026-.266-.078-.34-.098a7.885 7.885 0 0 1-.608-.183c-.406-.14-.8-.302-1.187-.477-.801-.363-1.511-.918-1.613-1.531-.572-3.462-3.392-4.178-5.357-6.417a2.628 2.628 0 0 1-.494-.87c-.107-.301-.15-.608-.403-1.018-1.281-2.077-1.068-5.684 2.688-5.258-1.684.24-3.319 1.448-3.201 3.004.214 1.046.92 2.008 1.291 2.825.371.815.5 1.266 1.104 1.682 2.374 1.638 4.465 2.937 4.502 5.273.015.92.751 1.665 1.361 1.978a9.883 9.883 0 0 0 2.038.774c-.152-.073-1.373-.701-2.312-1.399-.461-.342-.959-1.509-1.007-2.347-.148-2.592-1.73-3.447-4.16-4.966-1.187-.743-1.926-2.374-2.048-3.578-.069-.677.052-1.4.644-1.898.316-.266.711-.404 1.129-.511.724-.186.898-.244 1.333-.804.388-.5.654-.599 1.324-.836-.592.57-.537 1.293-1.087 1.816-.447.425-1.203.343-1.728.653-.528.313-.731.834-.798 1.355-.172 1.34.566 2.692 1.705 3.591.127.109.355.164.513.229.981.404 1.896.926 2.568 1.668.463.51.788 1.103.962 1.73.105.38.157.769.165 1.159.01.478.044.874.166 1.363.256 1.03 1.088 1.56 1.58 1.913.332.239.73.385 1.133.513l.864.279s.654.729.709.834C.586-.043.105.023 0 0" style="fill:#581b00;fill-opacity:1;fill-rule:nonzero;stroke:none" transform="matrix(2.5121 0 0 -2.5121 119.061 48.502)"/><path d="M0 0c.004.006.081.697.075.701-1.922.131-4.689.69-5.934 1.092-.059.015-.075 1.59-1.303 2.434-.161.111.109-.452.19-1.065.108-.825.063-1.808.063-1.901-.003-2.154-1.017-6.14-.996-6.266.117-.683.174-1.26 1.307-2.018 1.705-1.14 4.845-4.327 4.9-4.584-3.466 2.648-5.949 4.152-7.616 4.594-.505.133-1.036 6.248-3.863 8.409-1.393 1.065-2.933 1.975-3.548 3.18-1.754 3.437-.677 7.662 3.839 9.439 3.569 1.402 8.729-.19 10.541-.824.05-.018.051.377-.032.413-1.442.608-6.984 2.361-11.298.819-4.846-1.731-6.163-6.415-3.596-10.606 1.674-2.731 5.576-3.075 6.04-7.962.098-1.034.18-1.743.198-2.223.031-.889.656-1.16 1.149-1.24 1.428-.233 8.692-4.026 9.216-6.122.042-.169-.023-.441-.106-.597l2.522-.017c.007.219-.551 1.032-.8 1.419-.599.93-4.877 4.1-5.275 4.476-2.554 2.407-2.757 4.215-2.747 4.516.005.151.701 4.629.765 5.057.004.029.005.04.002.028.069-.025-.071 1.181.002 1.156.052-.018.317-1.268.372-1.286C-4.489.529-1.096.029 0 0" style="fill:#581b00;fill-opacity:1;fill-rule:nonzero;stroke:none" transform="matrix(2.5121 0 0 -2.5121 159.831 81.883)"/><path d="m0 0 .462.706S2.95.64 4.143 1.03c0 0 2.452-2.821 3.401-3.662.642-.568 2.412-2.234 2.702-2.445.307-.226.623-.533.664-.937.036-.339-.216-.612-.369-.895a63.013 63.013 0 0 1-1.072-2.258c.229 0 2.597 2.953 2.196 3.669a74.112 74.112 0 0 1-1.711 2.937A28.894 28.894 0 0 1 8.703-.695c-.108.145.461.505.866 1.073.419.587.677 1.379.723 1.317.017-.024.301-1.035.074-1.622-.099-.258-.574-.789-.542-.841.791-1.287 1.66-3.232 1.95-3.786.21-.399.649-.796.679-1.328.039-.711-1.74-2.771-2.197-3.251-.648-.681-1.035-1.478-1.626-2.04-.302-.287-2.312-1.432-2.312-1.432.057.201-.092 2.177-.034 2.464.005.028 1.934.244 2.083.38.613.557 1.013 1.586 1.419 2.292.219.381.557.805.601 1.253.05.504-.502.869-.866 1.1-.946.597-2.773 2.324-3.323 2.756-.564.443-2.115 1.973-2.284 2.359C2.582-.103 0 0 0 0" style="fill:#581b00;fill-opacity:1;fill-rule:nonzero;stroke:none" transform="matrix(2.5121 0 0 -2.5121 162.477 82.105)"/><path d="M0 0c.049.009-.049.009 0 0" style="fill:#581b00;fill-opacity:1;fill-rule:nonzero;stroke:none" transform="matrix(2.5121 0 0 -2.5121 110.97 83.443)"/><path d="M0 0c-.717.057-.933-.797-1.007-.914-.034-.054-.107-1.839-.216-3.135-.049-.582-.21-1.25-.41-1.885.297 2.07-.248 4.528-.512 5.448-.169.587.182 1.207.408 1.25.453-.037 2.394 1.56 3.599 3.031 0 0 1.662-.576 2.203-1.175.54-.599 1.371-1.567 1.371-1.567C3.967-.415 2.723-.214 0 0m5.632.76c-.799.904-4.357 3.72-4.357 3.72-.112-.238-.267-.618-.457-.872-1.081-1.441-2.586-2.325-2.737-2.3-.301-.058-.645-.24-.835-.51-.251-.356-.27-.834-.115-1.208.449-1.086.708-3.405.671-4.39-.038-1.011.075-1.882-.306-2.819-.452-1.112-2.493-1.075-2.651-1.112l1.076-2.274c.168.121 1.199.854 1.367 1.236.407.921.428.916.692 1.615.169.449.994 2.45 1.125 3.128.206 1.059.281 2.102.275 2.283-.001.017.071.939.139 1.047.099.157.256.342.423.418.22.1 1.183.179 1.466.158.178-.014 2.546-.196 3.813.919 0 0 .69.645.411.961" style="fill:#581b00;fill-opacity:1;fill-rule:nonzero;stroke:none" transform="matrix(2.5121 0 0 -2.5121 115.502 85.862)"/><path d="M0 0a1.02 1.02 0 0 0 1.016-1.034 1.02 1.02 0 0 0-1.02-1.039c-.566 0-1.025.456-1.025 1.039C-1.029-.46-.57 0-.004 0H0zm-.004-.161c-.455 0-.828-.39-.828-.873 0-.492.373-.878.832-.878.46-.005.827.386.827.873 0 .488-.367.878-.827.878h-.004zm-.193-1.475h-.184v1.153c.096.014.188.028.326.028.175 0 .289-.037.359-.087.069-.051.105-.129.105-.239 0-.152-.101-.243-.225-.281v-.009c.102-.018.17-.11.193-.28a.956.956 0 0 1 .073-.285H.258c-.028.037-.055.142-.078.294-.028.147-.102.202-.249.202h-.128v-.496zm0 .639h.133c.152 0 .28.055.28.197 0 .101-.074.203-.28.203a.818.818 0 0 1-.133-.01v-.39z" style="fill:#581b00;fill-opacity:1;fill-rule:nonzero;stroke:none" transform="matrix(2.5121 0 0 -2.5121 199.808 112.488)"/><path d="m0 0-.089-.314-.008-.027C-.102.007-.104.357-.093.705-.009.473.048.237 0 0m3.201 2.521c-.205-.088-.796-.573-.827-.631a2.069 2.069 0 0 1-.2-.614C2.085.764 2.1.578 1.822.301 1.7.18.572-.556.058-.825c.059.14.105.302.142.424l.096.341C.378.342.31.76.101 1.045c-.089.12-.095.318-.123.457.021.158.042.315.049.466.014.278-.128.548-.128.798 0-.168-.155-.346-.162-.529-.015-.391-.356-2.687.002-3.633.073-.192 1.739 1.172 2.167 1.525.535.441.431.903.617 1.504.05.161.573.668.749.791.231.162.681.281.773.344-.131.038-.681-.178-.844-.247" style="fill:#581b00;fill-opacity:1;fill-rule:nonzero;stroke:none" transform="matrix(2.5121 0 0 -2.5121 159.477 34.11)"/><path d="M0 0c-.18-.067-.511-.347-.525-.449a.911.911 0 0 1 .092-.473c.097-.188.106-.159.235-.372.033.093-.097.268-.11.328-.031.143-.054.147-.057.233-.013.326.33.188.295.593" style="fill:#581b00;fill-opacity:1;fill-rule:nonzero;stroke:none" transform="matrix(2.5121 0 0 -2.5121 167.203 9.866)"/><path d="M0 0c-.171-.374-.065-.624-.338-.976-.707-.915-3.339-3.188-3.468-3.055-.63.652-.852 2.65-.853 4.096-.001 1.062.08 2.162.288 2.78.234.697.594 1.102 1.1 1.236.115.03.249.045.391.043.433-.003 1.403-.299 1.578-.783-.122.338-.387.616-.711.806.045.329-.052 1.507-.237 2.258 0 0-.009-.059-.174-.029-.166.031-.231.262-.231.262.085-.31.409-2.012.415-2.378-.36.155-.761.204-1.108.112-.603-.159-1.043-.641-1.309-1.431-.248-.735-.33-2.056-.321-3.238.011-1.297.217-3.491.988-4.263.371-.37 3.619 3.082 3.889 3.722C.01-.577.094-.203.337.25c.215.4.382 1.016.597 1.403C.735 1.501.222.486 0 0" style="fill:#581b00;fill-opacity:1;fill-rule:nonzero;stroke:none" transform="matrix(2.5121 0 0 -2.5121 167.293 31.31)"/><path d="M0 0c-.358-1.246-.305-1.043-1.054-1.51-.875-.545-.828-.92-.693-1.678.124-.691-.293-.869-.895-.746-.712.143-.874-.79-1.519-.71-.327.04-.574-.198-.887-.361-.156-.081-.521-.214-.669.008.389-.056.481.297.743.476.291.199.665.121.984.283.24.122.318.417.57.516.289.114.617-.118.904-.023.436.145.341.793.251 1.126-.231.864.845 1.195 1.129 1.438.288.246.607.582.765 1.131.301 1.046-.027 1.684.019 2.381.022.321.023.508.202.788.185.291.544.441.796.675.202.189.56.428.78.551-.281-.346-.841-.692-1.109-.967-.331-.338-.512-.703-.441-1.21C-.027 1.481.195.678 0 0" style="fill:#581b00;fill-opacity:1;fill-rule:nonzero;stroke:none" transform="matrix(2.5121 0 0 -2.5121 169.225 46.673)"/><path d="M0 0c-.316.248-.672.327-.48.852.099.267.263.513.186.862a.897.897 0 0 1-.381.582c-.218.139-.484.181-.736.205-.282.026-.566.027-.847.062a2.602 2.602 0 0 0-.439.086.505.505 0 0 0-.299.247c-.133.259.213.336.37.456.122.092.223.212.292.349.179.355.097.799-.292.965-.163.071-.162.206-.066.315.289.327.242 1.211-.599 1.181-.434-.015-.531-.285-1.03-.231-.267.028-.432.13-.529.508-.089.346-.431.512-.748.328-.169-.098-.234-.244-.305-.415-.023-.053-.133-.2-.02-.219.1-.017.088.129.128.18.03.038.077.068.119.09.174.091.409.054.451-.164.163-.836.348-1.138.561-1.474.118-.185.271-.426.104-.594-.121-.12-.327-.135-.342-.364-.014-.217.131-.437.378-.401.293.041.264.479-.043.422.102-.003.163-.155.079-.214-.164-.116-.307.092-.205.23.071.095.238.177.325.246.344.276.126.611-.093.904-.293.395-.542.771-.559 1.138.375-.775 1.262-.235 1.753-.145.543.1.683-.574.253-.86-.42-.279-.202-.522.271-.667a.43.43 0 0 0 .202-.121c.126-.141.079-.344-.008-.492a.955.955 0 0 0-.215-.251c-.206-.175-.513-.398-.382-.711.097-.228.388-.331.602-.405.1-.035.211-.064.313-.087.358-.084.754-.133 1.083-.31.367-.196.603-.421.495-1.083C-.711.65-1.039.482-.816.142c.152-.229.633-.273.769-.568.249-.536-.138-.701-.47-.929-.238-.162-.423-.275-.484-.554-.087-.397.297-.687.057-1.103-.15-.26-.465-.378-.731-.471-.359-.126-.392-.328-.704-.546-.35-.246-.671-.608-.976-.9-.654-.63-1.692-.234-2.021-.897-.388-.78.278-2.061.127-2.86-.168-.881-1.212-.971-1.925-1.033-.872-.075-1.472-.429-1.195-1.349.194-.648.263-.67.264-1.098.001-.658-.835-.412-1.246-.574-.533-.211-.755-.941-1.728-.959-.399-.006-.694.092-1.095-.054-.425-.155-.805-.448-1.281-.098-.147.108-.152.363-.348.422-.168.05-.337-.05-.502-.008-.132.034-.209.176-.338.204-.111.024-.337-.056-.356.117-.005-.104.097-.211.194-.229.087-.017.172.02.23-.063.065-.093.114-.217.238-.241.135-.026.281.021.412-.034.276-.114.479-.488.749-.61.386-.175.831.005 1.211.099.417.103.641.023 1.034-.015.649-.064 1.011.341 1.375.788.51.625 1.317.283 1.723.729.462.507-.009 1.181-.077 1.409-.237.8.062 1.35 1.595 1.473.709.056 1.076.42 1.135.49.619.731-.058 2.07-.013 2.844.041.715.805.575 1.314.927.486.336.752.74 1.152 1.163.042.044.083.085.126.124.391.358.82.519 1.295.792.306.177.599.428.638.796.04.382-.117.733.253 1.007.29.215.721.397.828.801C.522-.456.322-.253 0 0" style="fill:#581b00;fill-opacity:1;fill-rule:nonzero;stroke:none" transform="matrix(2.5121 0 0 -2.5121 180.592 23.202)"/><path d="M0 0c.39-.839 1.168-.67 1.475-.447.784.569.86.158.651-.062l.193.032c.095.414-.108.619-.769.287C1.092-.42.411-.287-.024.557L0 0z" style="fill:#581b00;fill-opacity:1;fill-rule:nonzero;stroke:none" transform="matrix(2.5121 0 0 -2.5121 168.023 8.733)"/><path d="M0 0c-.167-.888.363-1.397 1.322-1.666.363-.102 1.247-.228 1.515-.497.415-.415-.19-.826.022-1.318.135-.314.491-.37.595-.709.157-.519-.15-.725-.338-1.126-.177-.378-.033-.675.151-.981.175-.291.16-.965-.235-1.142.258.45-.009.757-.206 1.154-.258.518-.115.842.189 1.314.208.324.207.629-.005.957-.158.246-.426.303-.472.606-.049.319.158.409.234.673.155.548-1.339.808-1.712.892.809-.424.426-1.663.159-2.14-.164-.296-.254-.378-.453-.664-.129-.184-.273-.418-.38-.582l-.295-.112c.149.398.444.746.67 1.11.315.505.551 1.34.386 1.93-.123.445-.623.551-.92.846C-.144-1.087-.151-.173.115.23" style="fill:#581b00;fill-opacity:1;fill-rule:nonzero;stroke:none" transform="matrix(2.5121 0 0 -2.5121 167.868 14.263)"/><path d="M0 0c.119-.216.284-.404.281-.696-.006-.392-.333-.708-.317-1.09.012-.306.209-.638.02-.924-.125-.19-.336-.209-.34-.472.142.209.541.163.721.37.307.351.016.611-.066.95-.106.435.218.716.279 1.126C.64-.314.266-.131.13.195L0 0z" style="fill:#581b00;fill-opacity:1;fill-rule:nonzero;stroke:none" transform="matrix(2.5121 0 0 -2.5121 168.137 30.11)"/><path d="M0 0a.555.555 0 0 1-.023.104c-.046.134-.17.242-.267.341-.251.253-.388.499-.34.87.037.284.211.532.335.783.143.291.237.656.145.974-.062.21-.182.383-.312.555-.137.179-.312.25-.226.489.181-.101.522-.378.633-.551.261-.409.263-.903.076-1.365-.152-.373-.402-.699-.286-1.125C-.183.773.08.6.248.352.357.19.405.022.334-.16.2-.503-.028-.671.216-1.019c.256-.366.539-.39.432-.887-.032-.149-.041-.308-.163-.418C.424-2.38.101-2.429.1-2.431c.25.417.326.691-.01 1.04-.188.195-.333.421-.299.702.031.254.242.418.209.689" style="fill:#581b00;fill-opacity:1;fill-rule:nonzero;stroke:none" transform="matrix(2.5121 0 0 -2.5121 172.368 29.144)"/><path d="M0 0c5.645 0 10.08-3.562 10.08-9.409 0-5.622-4.181-10.268-10.231-10.268-6.872 0-9.903 5.349-9.903 9.864C-10.054-5.746-6.924 0 0 0m.529-18.55c2.259 0 6.679 1.431 6.682 8.435.002 5.413-3.421 9.091-7.386 9.091-4.19 0-7.079-2.784-7.085-8.084-.004-5.445 3.271-9.442 7.789-9.442" style="fill:#581b00;fill-opacity:1;fill-rule:nonzero;stroke:none" transform="matrix(2.5121 0 0 -2.5121 87.103 127.81)"/><path d="M0 0v4.413c0 3.92-.06 7.205-.06 7.205.302 0 3.242.074 4.747.074 2.486 0 7.291.228 10.274-2.859 1.256-1.306 2.436-3.389 2.436-6.376 0-3.162-1.303-5.594-2.709-7.076-1.079-1.131-3.553-2.885-7.82-2.885-2.156 0-6.795.299-7.048.299C-.18-7.205 0-2.41 0 0m2.595 1.704c0-2.659.028-4.968.051-5.441.025-.63.172-1.465.373-1.742.326-.48.965-1.001 3.927-1.001 2.338 0 4.195.68 5.672 2.163 1.307 1.277 2.01 3.687 2.01 5.996 0 3.186-1.38 5.246-2.405 6.325-2.365 2.488-4.925 2.668-7.913 2.668-.5 0-1.184-.078-1.389-.177-.223-.101-.298-.231-.298-.5-.028-.854-.028-3.248-.028-5.18V1.704z" style="fill:#581b00;fill-opacity:1;fill-rule:nonzero;stroke:none" transform="matrix(2.5121 0 0 -2.5121 128.592 158.036)"/><path d="M0 0v4.414c0 3.919-.203 7.279-.203 7.279.351-.001.986-.073 1.504-.076.377-.003 1.085.098 1.387.076 0 0-.092-3.36-.092-7.279V0c0-2.411.282-7.277.282-7.277-.543.014-.847.082-1.577.074C.64-7.211.238-7.312-.211-7.277-.211-7.277 0-2.411 0 0" style="fill:#581b00;fill-opacity:1;fill-rule:nonzero;stroke:none" transform="matrix(2.5121 0 0 -2.5121 188.47 158.016)"/><path d="M0 0c0 2.033-.005 3.012-.005 3.012.425.002.824-.069 1.3-.076.395-.003.915.078 1.339.076l.008-1.859c-.05-.803-.05-1.558-.05-2.61v-2.81c0-1.13-.025-1.18-.326-1.356C.657-6.475-1.841-6.745-3.3-6.752c-2.385-.013-6.079.415-8.591 2.813-1.469 1.4-2.987 3.95-2.989 7.023-.006 4.019 1.981 6.856 4.215 8.254 2.26 1.41 5.059 1.586 6.991 1.586 1.581 0 3.484-.327 3.96-.429.529-.124 1.404-.223 2.035-.246.25-.028.301-.128.301-.227 0-.354-.152-.179-.179-2.699-.002-.274-.259-.165-.582.145 0 0-.334.253-.571.469-.848.762-2.554 1.935-5.793 1.935-1.581 0-3.281-.145-5.067-1.535-1.465-1.139-2.531-3.436-2.531-6.375 0-3.536 1.779-6.095 2.657-6.951C-7.46-4.921-5.471-5.51-3.121-5.576c.903-.024 2.027.108 2.619.427.324.184.502.454.502.882V0z" style="fill:#581b00;fill-opacity:1;fill-rule:nonzero;stroke:none" transform="matrix(2.5121 0 0 -2.5121 39.906 160.23)"/><path d="M0 0a13.08 13.08 0 0 1 1.088-.073c.151 0 .185.024.914.024 0 0-7.79-18.298-7.933-18.588-.242-.487-.427-.682-.586-.682-.305-.007-.473.351-.952 1.554l-6.232 15.381-.962 2.387c.466.019 1.294-.076 1.594-.076.256 0 1.272.073 1.582.076 0 0 .645-2.086 1.021-3.062l4.608-12.107C-5.236-13.725-.973-3.013-.657-1.978-.529-1.603 0 0 0 0" style="fill:#581b00;fill-opacity:1;fill-rule:nonzero;stroke:none" transform="matrix(2.5121 0 0 -2.5121 248.425 128.644)"/><path d="m0 0-2.183 5.715c-.054.101-.106.15-.23.15H-7.81c-.123 0-.198-.074-.248-.201l-1.472-3.98c-.224-.63-.975-2.762-.975-2.762s-.505.023-.785.023c-.272 0-.737-.049-1.028-.023l1.088 2.762 5.912 15.551c.303.829.518.981.666.981.152 0 .384-.179.683-.96.379-.955 4.357-11.225 5.87-15.049l1.237-3.285c-.488-.003-.932.067-1.391.067-.456 0-.786-.033-1.382-.016L0 0zm-2.785 6.992c.121 0 .121.077.1.177l-2.33 6.756c-.099.197-.173.197-.283 0l-2.251-6.756c-.05-.125 0-.177.075-.177h4.689z" style="fill:#581b00;fill-opacity:1;fill-rule:nonzero;stroke:none" transform="matrix(2.5121 0 0 -2.5121 288.254 173.61)"/><path d="M0 0c.104-.088.163-.237.163-.447a.791.791 0 0 0-.187-.516.587.587 0 0 0-.462-.223c-.2 0-.348.044-.454.136-.111.088-.163.241-.163.441 0 .199.063.372.191.524.127.145.274.22.455.22C-.258.135-.107.089 0 0" style="fill:#581b00;fill-opacity:1;fill-rule:nonzero;stroke:none" transform="matrix(2.5121 0 0 -2.5121 198.541 188.66)"/><path d="M0 0c-.098 1.622-.602 2.646-1.872 2.646-1.265 0-2.73-1.372-3.5-3.375-.309-.803-.486-1.618-.5-2.349-.035-1.783.849-2.585 2.087-2.585 1.155 0 2.293.927 2.859 1.643.243.302.466.604.663.909l.176-.119C-.635-4.31-1.773-5.49-3.05-6.031c-1.779-.774-3.37.082-3.884 1.469-.323.886-.244 2.245.292 3.509a6.97 6.97 0 0 0 1.321 2.054 6.612 6.612 0 0 0 1.947 1.451c1.055.514 2.277.671 3.243.436a3.85 3.85 0 0 0 .823-.295A94.53 94.53 0 0 1 .137 0H0z" style="fill:#581b00;fill-opacity:1;fill-rule:nonzero;stroke:none" transform="matrix(2.5121 0 0 -2.5121 99.643 195.544)"/><path d="M0 0c-.214-.663-.596-1.281-1.075-1.832-.562-.648-1.7-1.77-3.103-1.306-.544.235-.588.712-.588 1.149 0 1.26 1.146 2.739 2.169 3.488.282.209.943.63 1.592.677.231.017.424-.028.572-.09C-.076 1.933.439 1.367 0 0m-2.891.582c-.529-.888-.823-2.188-.823-2.726 0-.941.954-.859 1.34-.546.74.609 1.695 3.095 1.431 3.96a.694.694 0 0 1-.712.473c-.472-.042-.784-.403-1.236-1.161" style="fill:#581b00;fill-opacity:1;fill-rule:nonzero;stroke:none" transform="matrix(2.5121 0 0 -2.5121 129.892 203.04)"/><path d="M0 0c-.214-.663-.596-1.281-1.075-1.832-.561-.648-1.7-1.77-3.102-1.306-.546.235-.589.712-.589 1.149 0 1.26 1.146 2.739 2.169 3.488.282.209.944.63 1.592.677.229.017.425-.028.572-.09C-.076 1.933.438 1.367 0 0m-2.891.582c-.529-.888-.823-2.188-.823-2.726 0-.941.954-.859 1.341-.546.739.609 1.695 3.095 1.43 3.96a.695.695 0 0 1-.712.473c-.472-.042-.784-.403-1.236-1.161" style="fill:#581b00;fill-opacity:1;fill-rule:nonzero;stroke:none" transform="matrix(2.5121 0 0 -2.5121 154.713 203.04)"/><path d="M0 0c.62.21 1.371.864 1.379.957.002.054-.02.082-.074.085C.552.467.138.361-.332.475c-.396.096-.64.369-.635.973.014 1.414 1.059 3.822 2.118 3.26a.512.512 0 0 0 .246-.32c-.163-.093-.326-.48-.064-.702.299-.232.974-.206.974.702 0 .868-.786 1.045-1.637.701C.159 4.883-.383 4.49-.824 3.995a7.107 7.107 0 0 1-.949-1.407c-.223-.454-.336-.879-.336-1.274 0-.404.12-.747.358-1.041C-1.293-.263-.551-.187 0 0" style="fill:#581b00;fill-opacity:1;fill-rule:nonzero;stroke:none" transform="matrix(2.5121 0 0 -2.5121 136.782 210.812)"/><path d="M0 0h1.001L.26-1.963S.956-.535 1.755-.072c.308.212.882.43 1.322.005.452-.557.262-1.19-.113-1.407-.332-.193-.776-.094-.813.402a.66.66 0 0 0 .155.445.38.38 0 0 1-.225.111C1.268-.446.512-1.767.276-2.309c-.47-1.074-.98-2.652-1.014-2.766h-.919L0 0z" style="fill:#581b00;fill-opacity:1;fill-rule:nonzero;stroke:none" transform="matrix(2.5121 0 0 -2.5121 212.704 198.06)"/><path d="M0 0c-.151-.144-1.448-1.088-1.565-.309-.027.181.023.39.148.793.101.341.531 1.742.551 1.812.088.284.239 1.121-.133 1.534-1.189 1.344-3.287-1.16-3.606-2.014.413 1.106 2.117 5.668 2.522 6.736h-1.038L-6.508-1.05h.919c.062.267.45 1.347.68 1.89.325.778.898 1.609 1.681 2.318.452.41 1.012.453 1.326.173.277-.425.035-.951-.635-3.23-.125-.413-.085-.939.149-1.124.547-.433 1.342-.001 1.763.314.189.146.705.59.705.628C.08-.027.038.037 0 0" style="fill:#581b00;fill-opacity:1;fill-rule:nonzero;stroke:none" transform="matrix(2.5121 0 0 -2.5121 116.653 208.171)"/><path d="M0 0c.228.055.487.088.827.199.62.193 2.178.899 2.178 1.862 0 .431-.215.669-.645.647C1.471 2.659.281 1.738-.447.733c-.652-.903-.926-1.775-.89-2.239.043-.539.423-1.18 1.246-1.18.399 0 .91.128 1.512.544.2.136.69.541.695.578.001.022-.032.095-.077.086-.017-.002-.178-.134-.239-.174-.398-.341-1.404-.703-1.834-.144C-.411-1.314-.237-.624 0 0m.294.77c.164.39.453.842.782 1.154.163.142.361.226.532.225.484-.004.533-.442.192-.87C1.345.706.553.319.093.242c.044.134.11.31.201.528" style="fill:#581b00;fill-opacity:1;fill-rule:nonzero;stroke:none" transform="matrix(2.5121 0 0 -2.5121 200.8 204.405)"/><path d="M0 0c-.141-.406-.117-.927.108-1.125.387-.355 1.137-.191 1.796.303.269.205.67.54.67.64 0 .055-.029.081-.082.081-.007 0-.613-.687-1.195-.673-.298.006-.378.157-.378.473 0 .113.051.345.157.685 0 0 1.008 3.011 1.06 3.222h1.739l.085.322H2.242L2.99 6.1l-1.046-.256L0 0" style="fill:#581b00;fill-opacity:1;fill-rule:nonzero;stroke:none" transform="matrix(2.5121 0 0 -2.5121 180.153 207.842)"/><path d="M0 0c-.009 0-.617-.687-1.199-.673-.293.006-.38.157-.374.474.008.316.252.982.588 1.933.397 1.126.888 2.3.922 2.364l-.89-.003a3.998 3.998 0 0 0-.192-.427c-.232.749-.933.497-1.301.328-.916-.42-1.92-1.334-2.482-2.115-.635-.893-.765-1.4-.765-2.135 0-.273.139-1.267 1.436-.811C-2.96-.635-2.235.713-2.11.911l.025-.026a4.505 4.505 0 0 0-.162-.327 3.18 3.18 0 0 1-.192-.457c-.154-.443-.1-.926.125-1.125.787-.698 2.39.802 2.39.943C.076-.026.053 0 0 0m-1.957 1.595c-.08-.161-.622-1.178-1.158-1.646-.436-.378-.852-.508-.939-.508-.727 0-.792.848-.114 2.236.137.28.298.537.457.796.469.75 1.082 1.376 1.691 1.179.766-.231.62-.826.063-2.057" style="fill:#581b00;fill-opacity:1;fill-rule:nonzero;stroke:none" transform="matrix(2.5121 0 0 -2.5121 178.563 208.097)"/><path d="M0 0c-.121-.413-.121-.904.151-1.124.171-.14.38-.192.612-.198.749-.021 1.856 1.018 1.856 1.14 0 .054-.026.081-.079.081-.009 0-.616-.687-1.197-.674-.298.007-.376.157-.376.474 0 .113.05.343.155.684 0 0 1.311 3.42 1.407 3.692H1.486C1.264 3.408 0 0 0 0" style="fill:#581b00;fill-opacity:1;fill-rule:nonzero;stroke:none" transform="matrix(2.5121 0 0 -2.5121 189.69 207.916)"/><path d="m0 0-.125-.457C-.251-.869-.222-1.385 0-1.582c.161-.147.348-.198.586-.198.866 0 1.856 1.079 1.856 1.14 0 .054-.028.081-.082.081-.009 0-.615-.686-1.198-.673-.295.006-.389.16-.394.438 0 .114.072.379.174.719l.234.793C1.297 1.094 3.665 7.849 3.717 8H2.705C2.479 7.282 0 0 0 0" style="fill:#581b00;fill-opacity:1;fill-rule:nonzero;stroke:none" transform="matrix(2.5121 0 0 -2.5121 156.786 206.767)"/></svg>